
<svg aria-hidden="true" style="position: absolute; width: 0; height: 0; overflow: hidden;" version="1.1" xmlns="http://www.w3.org/2000/svg" xmlns:xlink="http://www.w3.org/1999/xlink">
<defs>
<symbol id="icon-client-five" viewBox="0 0 44 32">
<path d="M3.339 26.713c0.139 0.139 0.278 0.417 0.278 0.696 0 0.139 0 0.278-0.139 0.417 0 0.139-0.139 0.278-0.278 0.417-0.348 0.209-0.696 0.278-1.183 0.278h-2.017v-4.174h2.017c0.348 0 0.696 0 1.113 0.278l0.278 0.348 0.070 0.417c0 0.278 0 0.487-0.209 0.696-0.139 0.139-0.417 0.278-0.626 0.278 0.278 0.070 0.487 0.209 0.696 0.417zM0.974 26.017h0.835c0.209 0 0.348 0 0.557-0.139l0.139-0.139v-0.487l-0.139-0.209-0.557-0.139h-0.835v1.113zM2.365 27.687c0.139 0 0.209-0.139 0.209-0.209v-0.487l-0.139-0.209-0.626-0.139h-0.835v1.183h0.904c0.209 0 0.348 0 0.557-0.139zM7.374 28.522l-1.043-1.67h-0.417v1.67h-1.043v-4.174h1.809c0.417 0 0.904 0.070 1.252 0.348 0.278 0.209 0.417 0.557 0.417 0.835 0 0.348-0.070 0.696-0.278 0.904-0.209 0.278-0.557 0.417-0.904 0.487l1.183 1.67h-1.043zM5.913 26.296h0.696c0.626 0 0.835-0.209 0.835-0.696v-0.209c-0.035-0.081-0.082-0.15-0.139-0.209l0 0c-0.209-0.139-0.417-0.209-0.696-0.209h-0.696v1.322zM12.591 27.687h-1.878l-0.278 0.835h-0.974l1.739-4.174h1.113l1.739 4.174h-1.043l-0.348-0.835zM12.383 26.991l-0.696-1.739-0.696 1.739h1.391zM19.13 28.522h-0.904l-2.087-2.922v2.922h-0.974v-4.174h0.835l2.087 2.922v-2.922h0.974v4.174zM24.557 27.478c-0.209 0.348-0.487 0.626-0.835 0.765-0.417 0.209-0.904 0.278-1.391 0.278h-1.67v-4.174h1.67c0.487 0 0.974 0 1.391 0.278 0.348 0.139 0.696 0.417 0.835 0.696 0.181 0.321 0.288 0.704 0.288 1.113s-0.107 0.792-0.294 1.125l0.006-0.012zM23.443 27.409c0.271-0.265 0.438-0.635 0.438-1.043s-0.168-0.778-0.438-1.043l-0-0c-0.278-0.209-0.696-0.348-1.183-0.348h-0.696v2.783h0.696c0.487 0 0.904-0.070 1.183-0.348zM13.217 0.557s12.243 4.174 11.965 10.157v10.157s-12.243-4.174-11.965-10.157v-10.157zM36.035 18.504c2.365-1.391 5.009-2.365 7.791-2.574v-3.2c-3.216 1.097-5.881 3.11-7.759 5.727l-0.032 0.047z"></path>
<path d="M34.643 19.478c1.948-3.478 5.217-6.122 9.183-7.443v-9.113s-17.391 5.913-17.043 14.47v14.47l2.017-0.765v-1.391c0.433-4.235 2.616-7.887 5.805-10.268l0.038-0.027z"></path>
<path d="M33.043 24.835c0.070-1.043 0.278-2.017 0.557-2.991-2.19 2.282-3.574 5.352-3.686 8.743l-0.001 0.022 3.409-1.6c-0.348-1.391-0.417-2.783-0.278-4.174zM33.739 24.904c-0.139 1.252-0.070 2.504 0.209 3.757 4.73-2.574 10.087-6.539 9.878-11.27v-0.417c-3.409 0.348-6.609 1.67-9.043 3.757-0.557 1.391-0.974 2.783-1.043 4.174z"></path>
</symbol>
<symbol id="icon-client-four" viewBox="0 0 66 32">
<path d="M10.146 9.756c-1.795 0-3.278 1.405-3.278 3.122 0 1.561 1.483 2.966 3.356 2.966s3.356-1.327 3.356-3.044c0-1.639-1.561-3.044-3.356-3.044zM35.122 8.819c0-2.341-1.093-4.605-2.888-6.244-1.817-1.599-4.216-2.576-6.844-2.576-0.009 0-0.017 0-0.026 0h0.001c-2.732 0-5.073 0.937-6.946 2.576-1.795 1.639-2.81 3.902-2.81 6.244v12.8s19.512-1.951 19.512-12.8zM0 25.912c0 1.561 0.78 3.122 2.029 4.293 1.259 1.115 2.925 1.795 4.749 1.795 0.004 0 0.008 0 0.012 0h-0.001c1.795 0 3.512-0.624 4.761-1.795 1.212-1.050 1.987-2.577 2.029-4.285l0-0.007v-8.976s-13.581 1.327-13.581 8.976zM6.79 27.473c-0.39 0-0.702-0.078-1.015-0.234l-0.624-0.78c-0.156-0.234-0.156-0.546-0.078-0.859 0-0.312 0.234-0.624 0.468-0.859s0.546-0.39 0.937-0.468c0.312 0 0.702 0 1.015 0.156 0.312 0.078 0.546 0.312 0.78 0.546 0.17 0.246 0.271 0.551 0.271 0.879 0 0.454-0.194 0.864-0.504 1.149l-0.001 0.001-0.546 0.39-0.702 0.078zM19.2 24.585v3.356h-0.702v-3.356h0.78zM20.527 25.99v0.546h-1.561v-0.546h1.561zM20.683 24.585v0.546h-1.639v-0.546h1.639zM23.805 26.146v0.234l-0.078 0.624c0 0.234-0.156 0.39-0.312 0.546-0.078 0.156-0.234 0.234-0.468 0.312l-0.546 0.078-0.546-0.078-0.468-0.312c-0.135-0.153-0.242-0.335-0.309-0.535l-0.003-0.011-0.078-0.624v-0.234l0.078-0.624 0.312-0.546 0.468-0.312 0.546-0.078 0.546 0.078c0.234 0.078 0.39 0.156 0.468 0.312l0.312 0.546 0.078 0.624zM23.102 26.381v-0.702l-0.156-0.312c-0.115-0.145-0.292-0.237-0.489-0.237-0.020 0-0.040 0.001-0.059 0.003l0.003-0h-0.312l-0.234 0.234-0.156 0.312v1.093l0.156 0.39 0.234 0.234h0.624l0.234-0.234 0.156-0.39v-0.39zM26.068 27.083v-0.156l-0.312-0.312-0.39-0.078-0.39-0.156-0.39-0.234-0.234-0.312c-0.016-0.059-0.025-0.126-0.025-0.195s0.009-0.137 0.026-0.201l-0.001 0.005v-0.312l0.312-0.312 0.39-0.234c0.128-0.032 0.274-0.051 0.425-0.051 0.241 0 0.47 0.047 0.68 0.133l-0.012-0.004 0.468 0.39 0.156 0.546h-0.78v-0.312l-0.156-0.156h-0.312c-0.047-0.010-0.101-0.016-0.156-0.016s-0.109 0.006-0.161 0.017l0.005-0.001-0.156 0.156-0.078 0.156v0.156l0.156 0.156 0.234 0.078 0.234 0.156 0.546 0.156 0.312 0.234c0.192 0.159 0.313 0.397 0.313 0.663 0 0.014-0 0.028-0.001 0.041l0-0.002-0.078 0.39-0.312 0.234-0.39 0.234c-0.125 0.030-0.27 0.047-0.418 0.047-0.366 0-0.707-0.105-0.995-0.286l0.008 0.005-0.312-0.312-0.078-0.546h0.702v0.312l0.156 0.156 0.234 0.078h0.546c0.126-0.055 0.217-0.171 0.234-0.31l0-0.002zM28.722 24.585v3.356h-0.78v-3.356h0.78zM29.737 24.585v0.546h-2.732v-0.546h2.732zM32.312 27.395v0.546h-1.717v-0.624h1.717zM30.751 24.585v3.356h-0.624v-3.356h0.702zM32.078 25.99v0.468h-1.561v-0.468h1.561zM32.312 24.585v0.546h-1.717v-0.546h1.717zM32.781 24.585h1.171c0.312 0 0.468 0 0.702 0.156 0.156 0 0.312 0.156 0.39 0.312 0.156 0.156 0.156 0.312 0.156 0.546l-0.078 0.468c0 0.156-0.156 0.234-0.234 0.312l-0.39 0.234-0.234 0.078h-1.093v-0.546h1.171l0.234-0.234v-0.546l-0.234-0.156-0.312-0.078h-0.546v2.81h-0.702v-3.356zM34.576 27.941l-0.781-1.561h0.781l0.781 1.561h-0.781zM38.244 26.771h-0.859v-0.546h0.78l0.39-0.078 0.156-0.156v-0.546l-0.156-0.234c-0.087-0.049-0.191-0.078-0.302-0.078-0.003 0-0.007 0-0.010 0h-0.624v2.81h-0.781v-3.356h1.405c0.234 0 0.468 0 0.624 0.156 0.37 0.157 0.624 0.517 0.624 0.937v0l-0.156 0.546c-0.156 0.156-0.234 0.312-0.468 0.39-0.182 0.091-0.396 0.147-0.621 0.156l-0.003 0zM42.146 27.395v0.546h-1.795v-0.624h1.795zM40.585 24.585v3.356h-0.624v-3.356h0.624zM41.912 25.99v0.468h-1.561v-0.468h1.561zM42.146 24.585v0.546h-1.795v-0.546h1.795zM44.098 24.585v3.356h-0.702v-3.356h0.702zM45.112 24.585v0.546h-2.732v-0.546h2.732zM47.766 27.395v0.546h-1.795v-0.624h1.795zM46.205 24.585v3.356h-0.702v-3.356h0.702zM47.532 25.99v0.468h-1.561v-0.468h1.561zM47.766 24.585v0.546h-1.795v-0.546h1.795zM48.156 24.585h1.249c0.234 0 0.468 0 0.624 0.156 0.234 0 0.312 0.156 0.468 0.312l0.156 0.546c0 0.156 0 0.312-0.156 0.468 0 0.156-0.078 0.234-0.234 0.312l-0.39 0.234-0.234 0.078h-1.015v-0.546h1.093l0.156-0.234v-0.546l-0.156-0.156-0.312-0.078h-0.546v2.81h-0.781v-3.356zM50.029 27.941l-0.781-1.561h0.781l0.781 1.561h-0.781zM52.917 27.083v-0.156l-0.156-0.156-0.234-0.156-0.312-0.078-0.39-0.156-0.39-0.234-0.234-0.312c-0.050-0.1-0.079-0.218-0.079-0.343 0-0.017 0.001-0.033 0.002-0.049l-0 0.002 0.078-0.312c0-0.156 0.156-0.234 0.234-0.312l0.39-0.234c0.142-0.040 0.304-0.063 0.472-0.063 0.252 0 0.492 0.052 0.71 0.146l-0.012-0.004 0.39 0.39c0.156 0.156 0.156 0.312 0.156 0.546h-0.624l-0.078-0.312-0.234-0.156h-0.312c-0.035-0.006-0.076-0.009-0.117-0.009s-0.082 0.003-0.121 0.009l0.004-0.001-0.234 0.156v0.312l0.156 0.156 0.468 0.234 0.468 0.156 0.39 0.234c0.149 0.154 0.241 0.364 0.241 0.596 0 0.037-0.002 0.074-0.007 0.111l0-0.004v0.39l-0.312 0.234-0.39 0.234c-0.125 0.030-0.27 0.047-0.418 0.047-0.366 0-0.707-0.105-0.995-0.286l0.008 0.005-0.312-0.312-0.078-0.546h0.624l0.078 0.312 0.156 0.156 0.156 0.078h0.624c0.126-0.055 0.217-0.171 0.234-0.31l0-0.002z"></path>
</symbol>
<symbol id="icon-client-one" viewBox="0 0 28 32">
<path d="M4.085 0l4.766 4.562h-8.851v21.992h23.149v-8.374l4.766 4.494v-22.672h-23.83zM22.945 17.634l-13.549-12.936h13.549v12.936zM18.723 23.353h-15.047v-14.843h1.021v13.821h14.026v1.021zM6.672 30.706l-0.545-1.157h-0.477l0.817 1.498v0.953h0.409v-0.885l0.817-1.498h-0.477l-0.545 1.021zM8.715 29.549h0.136l0.885 2.383h-0.409l-0.204-0.545h-0.953l-0.204 0.545h-0.409l0.885-2.383h0.272zM8.306 31.047h0.681l-0.34-1.021-0.34 1.021zM11.234 30.638c-0.059-0.074-0.126-0.162-0.191-0.253l-0.013-0.020v-0.613l0.272-0.204h0.613c0.183 0.090 0.307 0.276 0.307 0.49 0 0.069-0.013 0.134-0.036 0.195l0.001-0.004-0.136 0.204-0.204 0.136-0.136 0.136 0.477 0.545c0.083-0.136 0.133-0.3 0.136-0.476v-0.001h0.34v0.34c-0.039 0.157-0.11 0.295-0.206 0.41l0.001-0.002 0.34 0.409h-0.545l-0.136-0.136-0.272 0.136c-0.111 0.042-0.24 0.066-0.374 0.066s-0.263-0.024-0.382-0.069l0.008 0.002c-0.116-0.064-0.209-0.157-0.271-0.269l-0.002-0.003c-0.057-0.098-0.091-0.215-0.091-0.34s0.034-0.243 0.093-0.344l-0.002 0.003 0.34-0.34zM11.438 30.911h-0.068l-0.136 0.136c-0.034 0.059-0.055 0.129-0.055 0.204s0.020 0.146 0.056 0.206l-0.001-0.002c0 0.068 0 0.136 0.136 0.136l0.204 0.068c0.154 0 0.296-0.051 0.41-0.137l-0.002 0.001-0.545-0.681zM11.506 30.434l0.136-0.068 0.204-0.136v-0.34l-0.272-0.068c-0.088 0.011-0.162 0.062-0.204 0.135l-0.001 0.001c-0.018 0.040-0.028 0.087-0.028 0.136s0.010 0.096 0.029 0.138l-0.001-0.002 0.136 0.204zM15.728 31.115h-0.409v0.34l-0.204 0.136c-0.051 0.014-0.11 0.022-0.17 0.022s-0.119-0.008-0.175-0.023l0.005 0.001h-0.204c-0.081-0.028-0.15-0.075-0.204-0.136l-0-0-0.068-0.272v-0.885l0.068-0.272 0.204-0.136h0.545l0.136 0.136 0.068 0.272h0.409c0-0.136 0-0.272-0.136-0.409 0-0.136-0.136-0.204-0.272-0.272l-0.477-0.136-0.409 0.068-0.34 0.272-0.204 0.34v1.157c0 0.136 0.136 0.272 0.204 0.34 0.16 0.204 0.405 0.335 0.68 0.34h0.001c0.204 0 0.409 0 0.545-0.136 0.136 0 0.204-0.136 0.272-0.272l0.136-0.409zM18.043 30.774v-0.613l-0.272-0.34-0.272-0.272h-0.817l-0.34 0.272-0.204 0.34-0.068 0.477v0.681l0.272 0.34c0.16 0.204 0.405 0.335 0.68 0.34h0.001l0.477-0.068 0.272-0.272 0.204-0.34 0.068-0.545zM17.702 30.638v0.545l-0.136 0.272-0.204 0.136h-0.477c-0.080-0.031-0.149-0.077-0.204-0.136l-0-0-0.136-0.272v-0.885l0.136-0.272 0.204-0.136h0.477l0.204 0.136 0.136 0.272v0.34z"></path>
</symbol>
<symbol id="icon-client-six" viewBox="0 0 67 32">
<path d="M33.778 15.218c-0.269-0.353-0.431-0.801-0.431-1.286 0-0.048 0.002-0.096 0.005-0.143l-0 0.006v-1.991c0-0.711 0.142-1.138 0.427-1.422 0.284-0.356 0.782-0.498 1.493-0.498s1.138 0.142 1.422 0.356c0.284 0.356 0.427 0.853 0.356 1.28v0.498h-1.138v-0.996c0-0.142-0.142-0.213-0.213-0.284-0.117-0.089-0.266-0.142-0.427-0.142v0c-0.161 0-0.309 0.053-0.428 0.144l0.002-0.001c-0.142 0.071-0.213 0.213-0.213 0.284v3.058c0 0.213 0 0.427 0.142 0.711l0.213 0.142h0.284l0.427-0.071 0.142-0.284v-1.067h1.209v0.498c0 0.427-0.071 0.924-0.356 1.28-0.284 0.284-0.711 0.427-1.422 0.427s-1.209-0.142-1.422-0.498zM38.684 15.289c-0.284-0.356-0.427-0.782-0.427-1.422v-2.133c0-0.64 0.142-1.067 0.427-1.422 0.284-0.284 0.711-0.427 1.422-0.427s1.209 0.142 1.493 0.427c0.284 0.356 0.498 0.782 0.498 1.422v2.133c0 0.64-0.213 1.067-0.498 1.422-0.284 0.284-0.711 0.427-1.422 0.427s-1.209-0.142-1.493-0.427zM40.676 14.72c0.142-0.142 0.142-0.356 0.142-0.64v-2.631c0-0.213 0-0.427-0.142-0.64l-0.142-0.142c-0.043-0.009-0.092-0.014-0.142-0.014s-0.099 0.005-0.147 0.015l0.005-0.001c-0.053-0.014-0.115-0.023-0.178-0.023s-0.124 0.008-0.183 0.024l0.005-0.001-0.213 0.142c-0.142 0.213-0.142 0.427-0.142 0.711v2.631c0 0.213 0 0.427 0.142 0.64l0.213 0.142c0.095 0.039 0.205 0.062 0.32 0.062s0.225-0.023 0.326-0.064l-0.006 0.002 0.213-0.142zM43.449 9.956h1.351l0.924 3.982 0.996-4.053h1.209l0.142 5.76h-0.924l-0.071-3.982-0.924 3.982h-0.711l-0.996-3.982-0.071 3.982h-0.996l0.071-5.689zM49.422 9.956h1.92c1.138 0 1.707 0.498 1.707 1.564s-0.569 1.564-1.778 1.564h-0.711v2.56h-1.138v-5.689zM51.058 12.373h0.356c0.142 0 0.213-0.142 0.356-0.213 0.142-0.142 0.213-0.356 0.142-0.64v-0.498l-0.284-0.284-0.569-0.071h-0.427v1.707h0.427zM54.756 9.956h1.422l1.28 5.689h-1.138l-0.284-1.28h-1.138l-0.284 1.28h-1.138l1.351-5.689zM55.893 13.653l-0.427-2.418-0.427 2.418h0.853zM58.524 9.956h0.853l1.636 3.271v-3.342h0.996v5.76h-0.853l-1.636-3.413v3.413h-1.067v-5.689zM64.356 13.511l-1.351-3.556h1.138l0.853 2.276 0.711-2.276h1.138l-1.351 3.556v2.133h-1.138v-2.133zM35.698 18.204v0.284h-0.996v2.347h-0.427v-2.347h-0.996v-0.284h2.418zM38.756 20.836h-0.356v-0.071l-0.284-0.711h-1.422l-0.284 0.711-0.142 0.071h-0.284l1.209-2.631h0.427l1.209 2.631zM36.764 19.84h1.138l-0.498-1.067-0.071-0.284v0.142l-0.071 0.142-0.498 1.067zM40.818 20.622h0.284c0.135-0.034 0.253-0.083 0.362-0.146l-0.007 0.004h0.142v-0.711h-0.498v-0.213h0.853v0.996c-0.223 0.146-0.488 0.248-0.773 0.284l-0.009 0.001h-0.356l-0.64-0.071c-0.192-0.064-0.358-0.161-0.499-0.286l0.002 0.001-0.284-0.427c-0.071-0.142-0.142-0.356-0.071-0.569l0.071-0.498 0.284-0.427 0.498-0.284c0.191-0.065 0.411-0.102 0.64-0.102 0.126 0 0.248 0.011 0.368 0.033l-0.013-0.002c0.209 0.014 0.402 0.065 0.579 0.146l-0.010-0.004 0.213 0.142-0.142 0.213h-0.284l-0.142-0.142c-0.139-0.047-0.3-0.075-0.466-0.075-0.036 0-0.072 0.001-0.107 0.004l0.005-0c-0.064-0.010-0.138-0.016-0.213-0.016s-0.149 0.006-0.221 0.017l0.008-0.001-0.356 0.284-0.284 0.284v0.924l0.284 0.356c0.178 0.138 0.405 0.221 0.651 0.221 0.046 0 0.092-0.003 0.137-0.009l-0.005 0.001zM44.729 20.551h1.28v0.284h-1.707v-2.631h0.427v2.347zM47.431 20.836h-0.498v-2.631h0.427v2.631zM48.924 18.204h0.071l1.778 2.062v-2.062h0.356v2.631h-0.284v-0.071l-1.849-1.991v2.062h-0.356v-2.631h0.284zM54.187 18.204v0.284h-1.422v0.853h1.138v0.284h-1.209v0.924h1.493v0.284h-1.92v-2.631h1.92zM10.809 1.92l18.347 4.48v15.787l-18.347-4.48v-15.787zM9.6 0.498v17.991l20.764 5.12v-17.991l-20.764-5.049z"></path>
<path d="M20.764 31.858l-20.764-5.12v-17.92l20.764 5.12v17.92z"></path>
<path d="M9.956 1.707l18.133 4.409-7.68 6.684-18.133-4.48 7.68-6.613zM9.6 0.569l-9.6 8.249 20.764 5.12 9.6-8.32-20.764-5.049zM21.902 30.862l8.462-7.396-8.462-2.133v9.458z"></path>
</symbol>
<symbol id="icon-client-three" viewBox="0 0 34 32">
<path d="M5.307 31.376h0.156l0.156 0.234-0.468 0.312-0.702 0.078-0.624-0.078c-0.234-0.078-0.39-0.156-0.468-0.312-0.156-0.156-0.312-0.312-0.312-0.468-0.076-0.173-0.12-0.374-0.12-0.585s0.044-0.413 0.124-0.595l-0.004 0.010c0-0.156 0.156-0.312 0.312-0.39l0.546-0.312c0.186-0.062 0.401-0.098 0.624-0.098s0.438 0.036 0.639 0.103l-0.014-0.004 0.468 0.234-0.156 0.156h-0.312c-0.174-0.098-0.383-0.156-0.605-0.156-0.007 0-0.014 0-0.021 0h-0.467l-0.39 0.312-0.234 0.312-0.078 0.468 0.078 0.468c0.122 0.262 0.345 0.459 0.617 0.544l0.007 0.002h0.624c0.002 0 0.004 0 0.006 0 0.201 0 0.387-0.058 0.545-0.159l-0.004 0.002h0.078zM10.302 30.595c0 0.156 0 0.39-0.156 0.546 0 0.156-0.156 0.312-0.312 0.468-0.132 0.128-0.287 0.233-0.458 0.308l-0.010 0.004h-1.327c-0.211-0.070-0.393-0.177-0.548-0.314l0.002 0.001-0.312-0.468c-0.156-0.39-0.156-0.78 0-1.171l0.312-0.39 0.546-0.312c0.39-0.156 0.859-0.156 1.327 0 0.156 0 0.312 0.156 0.468 0.312 0.287 0.245 0.468 0.607 0.468 1.012 0 0.001 0 0.002 0 0.003v-0zM9.834 30.595l-0.078-0.468c-0.113-0.268-0.34-0.469-0.618-0.545l-0.007-0.002c-0.14-0.046-0.301-0.072-0.468-0.072s-0.328 0.026-0.479 0.075l0.011-0.003-0.312 0.156c-0.156 0.156-0.234 0.234-0.234 0.39-0.156 0.312-0.156 0.624 0 0.937 0.097 0.253 0.293 0.449 0.54 0.544l0.006 0.002h0.937c0.156 0 0.312-0.156 0.39-0.234l0.234-0.312 0.078-0.468zM13.659 31.063v0.078l0.156-0.078v-0.078l1.093-1.717h0.078l0.078-0.078h0.39v2.81h-0.39v-2.341l-1.171 1.717v0.078h-0.312l-1.171-1.795v2.341h-0.39v-2.81h0.468l1.171 1.795v0.078zM17.795 30.907v1.093h-0.39v-2.81h1.483l0.39 0.234 0.234 0.234v0.39c0.002 0.019 0.003 0.042 0.003 0.064 0 0.22-0.091 0.418-0.237 0.56l-0 0-0.39 0.156-0.546 0.078h-0.546zM17.795 30.595h0.937c0.156 0 0.234-0.078 0.234-0.156l0.156-0.156 0.078-0.234v-0.234l-0.156-0.156c-0.234-0.156-0.39-0.156-0.624-0.156h-0.546v1.093zM23.649 32h-0.39l-0.156-0.156-0.234-0.624h-1.561l-0.234 0.624v0.078h-0.546l1.249-2.732h0.468l1.327 2.81zM21.463 30.907h1.249l-0.546-1.093v-0.234l-0.156 0.078v0.156l-0.546 1.093zM25.444 29.19h0.078l1.873 2.185v-2.185h0.39v2.81h-0.234l-0.078-0.078-1.873-2.107v2.185h-0.39v-2.81h0.234zM30.985 30.829v1.171h-0.39v-1.171l-1.249-1.639h0.468l0.078 0.078 0.78 1.093c0.028 0.064 0.055 0.142 0.076 0.223l0.003 0.011 0.078-0.078 0.078-0.156 0.78-1.093 0.078-0.078h0.39l-1.171 1.639zM13.502 24.507h0.546c2.888-1.015 5.385-2.888 7.024-5.151 1.717-2.341 2.654-4.995 2.576-7.727l-3.2-2.732c0.624 2.888 0.312 5.932-0.937 8.663-1.329 2.915-3.388 5.3-5.948 6.986l-0.062 0.038z"></path>
<path d="M12.332 24.429h0.078c2.966-1.795 5.151-4.293 6.4-7.18 0.721-1.584 1.142-3.435 1.142-5.385 0-1.307-0.189-2.57-0.541-3.763l0.024 0.094-4.605-3.902c1.474 2.418 2.346 5.343 2.346 8.472 0 4.558-1.851 8.683-4.843 11.665l-0 0zM27.785 14.829c-0.893 3.198-2.799 5.864-5.344 7.698l-0.041 0.028c-0.724 0.55-1.542 1.068-2.402 1.516l-0.095 0.045c2.185-0.546 4.215-1.561 5.932-2.888 1.639-1.327 2.966-2.966 3.824-4.761l-1.873-1.561z"></path>
<path d="M27.083 14.439l-2.654-2.341c0 2.654-0.859 5.151-2.498 7.337-1.561 2.185-3.746 3.98-6.4 5.151h1.795c2.484-0.893 4.599-2.28 6.318-4.054l0.004-0.004c1.717-1.795 2.888-3.902 3.434-6.088zM12.722 2.654l-3.122-2.654c-2.83 0.891-5.214 2.519-7.005 4.66l-0.019 0.023c-1.561 2.107-2.576 4.683-2.576 7.181 0.041 3.021 1.221 5.76 3.129 7.812l-0.007-0.007c2.107 2.341 4.995 3.902 8.195 4.605 2.888-3.044 4.605-6.712 4.839-10.615s-0.937-7.727-3.434-10.927zM34.341 14.049c0-3.434-1.561-6.634-4.371-9.054-2.885-2.324-6.594-3.731-10.632-3.731-1.891 0-3.71 0.309-5.41 0.878l0.12-0.035 19.2 16.39c0.645-1.299 1.043-2.822 1.092-4.432l0-0.017z"></path>
</symbol>
<symbol id="icon-client-two" viewBox="0 0 25 32">
<path d="M10.523 1.846h-0.677c-0.119-0.003-0.259-0.005-0.4-0.005s-0.281 0.002-0.421 0.006l0.021-0c-2.277 0-4.492 0.615-6.523 1.538l-0.308 0.123v13.723l0.615-0.246c2.011-0.683 4.33-1.106 6.739-1.169l0.031-0.001v1.846h-0.677c-3.131 0.148-6.034 0.997-8.597 2.391l0.105-0.052v-17.477c2.642-1.58 5.826-2.516 9.229-2.523h0.31c1.163 0.052 2.26 0.206 3.322 0.455l-0.122-0.024v1.723c-0.738-0.185-1.477-0.246-2.215-0.308h-0.492zM13.6 3.631h1.231c3.41-0.009 6.611-0.898 9.391-2.45l-0.098 0.050v17.231c-2.622 1.533-5.773 2.438-9.136 2.438-1.253 0-2.477-0.126-3.659-0.365l0.118 0.020v-17.231c0.642 0.149 1.4 0.259 2.176 0.306l0.040 0.002zM22.338 3.754l-0.615 0.185-1.723 0.554c-1.553 0.409-3.337 0.644-5.175 0.644-0.388 0-0.773-0.010-1.155-0.031l0.053 0.002h-0.492v13.969h0.369l1.231 0.123c2.669-0.005 5.188-0.641 7.418-1.766l-0.095 0.043 0.246-0.123v-13.6z"></path>
<path d="M1.662 25.969c-0.161-0.15-0.377-0.243-0.615-0.246h-0.431c-0.362 0.13-0.617 0.471-0.617 0.871 0 0.018 0.001 0.037 0.002 0.055l-0-0.003v2.338c0 0.185 0 0.369 0.123 0.492 0 0.123 0.123 0.246 0.185 0.308l0.369 0.185h0.677c0.364-0.15 0.615-0.502 0.615-0.913 0-0.004-0-0.007-0-0.011v0.001-0.246h-0.615v0.369l-0.246 0.246h-0.123c-0.017 0.003-0.037 0.005-0.058 0.005-0.103 0-0.194-0.050-0.249-0.128l-0.001-0.001-0.062-0.369v-2.462c0.048-0.11 0.157-0.186 0.282-0.186 0.009 0 0.018 0 0.026 0.001l-0.001-0c0.111 0.014 0.203 0.085 0.245 0.183l0.001 0.002c0.123 0.062 0.123 0.185 0.123 0.308v0.185h0.615v-0.246c-0.008-0.287-0.123-0.546-0.308-0.739l0 0zM5.292 25.969c-0.188-0.151-0.429-0.243-0.692-0.243-0.127 0-0.248 0.021-0.362 0.060l0.008-0.002c-0.123 0-0.246 0.062-0.308 0.185l-0.246 0.308-0.062 0.431v2.277l0.062 0.431c0 0.123 0.123 0.246 0.246 0.308 0.062 0.123 0.185 0.185 0.308 0.185 0.11 0.043 0.237 0.067 0.369 0.067s0.26-0.025 0.376-0.070l-0.007 0.002c0.123 0 0.246-0.062 0.308-0.185 0.19-0.18 0.308-0.434 0.308-0.715 0-0.008-0-0.016-0-0.024l0 0.001v-2.277l-0.062-0.431c0-0.123-0.123-0.246-0.246-0.308zM5.046 28.923c0 0.002 0 0.004 0 0.006 0 0.117-0.047 0.224-0.123 0.302l0-0c-0.078 0.080-0.187 0.129-0.308 0.129s-0.229-0.049-0.308-0.129l-0-0c-0.076-0.078-0.123-0.184-0.123-0.302 0-0.002 0-0.004 0-0.006v0-2.277c0.025-0.074 0.068-0.136 0.123-0.184l0-0c0.078-0.080 0.187-0.129 0.308-0.129s0.229 0.049 0.308 0.129l0 0c0.076 0.078 0.123 0.184 0.123 0.302 0 0.002-0 0.004-0 0.006v-0 2.277zM10.092 29.969v-4.246h-0.615l-0.738 2.277-0.8-2.277h-0.615v4.246h0.615v-2.585l0.615 1.846h0.308l0.615-1.846v2.585h0.615zM13.538 26.031l-0.369-0.246h-1.354v4.185h0.615v-1.662h0.308c0.185 0 0.369 0 0.554-0.123l0.308-0.308 0.185-0.369c0.033-0.167 0.051-0.358 0.051-0.554s-0.019-0.387-0.054-0.573l0.003 0.019-0.246-0.369zM13.231 27.262l-0.062 0.308-0.185 0.123c-0.046 0.012-0.099 0.020-0.154 0.020s-0.108-0.007-0.158-0.020l0.004 0.001h-0.246v-1.415h0.308l0.246 0.062 0.185 0.185v0.8zM16.369 25.723h-0.492l-0.923 4.246h0.615l0.185-0.923h0.8l0.185 0.923h0.615l-0.985-4.246zM15.815 28.492l0.308-1.538 0.308 1.538h-0.615zM20.308 28.308l-0.985-2.585h-0.554v4.246h0.615v-2.523l0.923 2.523h0.615v-4.246h-0.615v2.585zM24 25.723l-0.492 1.662-0.554-1.662h-0.615l0.862 2.462v1.785h0.615v-1.846l0.8-2.4h-0.615zM0 31.138h0.308v0.862h0.185v-0.862h0.308v-0.123h-0.8v0.123zM2.462 31.015l-0.369 0.985h0.185l0.062-0.246h0.431l0.062 0.246h0.246l-0.431-0.985h-0.185zM2.462 31.631l0.062-0.431 0.185 0.369h-0.308zM4.923 31.631h0.185v0.123l-0.246 0.062c-0.006 0.001-0.013 0.001-0.021 0.001-0.063 0-0.12-0.024-0.164-0.063l0 0-0.123-0.246c0-0.246 0.123-0.369 0.308-0.369 0.018-0.007 0.040-0.011 0.062-0.011 0.102 0 0.185 0.083 0.185 0.185 0 0.004-0 0.007-0 0.011l0-0h0.185c0-0.246-0.185-0.369-0.431-0.369l-0.369 0.123c-0.082 0.088-0.132 0.206-0.132 0.336 0 0.034 0.003 0.066 0.010 0.098l-0.001-0.003c0 0.123 0 0.246 0.123 0.369 0.087 0.077 0.202 0.125 0.328 0.125 0.015 0 0.029-0.001 0.043-0.002l-0.002 0c0.185 0 0.308 0 0.431-0.185v-0.369h-0.431v0.185zM7.385 31.015h-0.246v0.985h0.677v-0.185h-0.431v-0.8zM9.415 31.015h-0.185v0.985h0.185v-0.985zM11.446 31.631l-0.369-0.615h-0.185v0.985h0.185v-0.615l0.369 0.615h0.185v-0.985h-0.185v0.615zM13.292 31.569h0.492v-0.185h-0.492v-0.246h0.554v-0.123h-0.738v0.985h0.738v-0.185h-0.554v-0.246zM17.846 31.385h-0.431v-0.369h-0.185v0.985h0.185v-0.431h0.369v0.431h0.185v-0.985h-0.123v0.369zM19.692 31.569h0.431v-0.185h-0.431v-0.246h0.554v-0.123h-0.738v0.985h0.738v-0.185h-0.554v-0.246zM22.154 31.569c0.185 0 0.246-0.123 0.246-0.308 0.001-0.006 0.001-0.013 0.001-0.021 0-0.063-0.024-0.12-0.063-0.164l0 0c-0.075-0.040-0.164-0.064-0.258-0.064-0.017 0-0.035 0.001-0.052 0.002l0.002-0h-0.431v0.985h0.246v-0.431h0.123l0.062 0.123 0.246 0.308h0.246l-0.123-0.185-0.246-0.246zM21.969 31.385h-0.123v-0.246h0.308c0.068 0 0.123 0.055 0.123 0.123s-0.055 0.123-0.123 0.123v0c-0.028 0.004-0.060 0.007-0.092 0.007s-0.065-0.003-0.096-0.007l0.003 0zM24.062 31.569h0.492v-0.185h-0.492v-0.246h0.554v-0.123h-0.738v0.985h0.738v-0.185h-0.554v-0.246z"></path>
</symbol>
<symbol id="icon-antenna" viewBox="0 0 32 32">
<path fill="#2e2f42" style="fill: var(--color1, #2e2f42)" d="M30.75 22.1l-8.4-8.5 0.9-4.6 0.8 0.1c0.004 0 0.010 0 0.015 0 1.187 0 2.15-0.963 2.15-2.15s-0.963-2.15-2.15-2.15c-1.187 0-2.15 0.963-2.15 2.15 0 0.269 0.050 0.527 0.14 0.765l-0.005-0.015-5 0.6-8.050-8.15c-0.089-0.091-0.213-0.148-0.35-0.15h-0c-0.012-0.001-0.027-0.002-0.041-0.002-0.141 0-0.268 0.058-0.359 0.152l-1.5 1.5c-0.104 0.092-0.169 0.226-0.169 0.375s0.065 0.283 0.169 0.375l0.001 0 0.75 0.85c-1.122 2.047-1.781 4.485-1.781 7.077 0 4.179 1.715 7.958 4.479 10.671l0.002 0.002-0.050 0.5v6.25h-6.4c-1.5 0-2.7 1.2-2.7 2.65v1.050c0 0.3 0.25 0.55 0.55 0.55h24.5c0.35 0 0.55-0.25 0.55-0.5v-1.1c0-1.5-1.15-2.65-2.65-2.65h-6.4v-2.75c0.895 0.19 1.924 0.299 2.978 0.299 2.609 0 5.063-0.666 7.2-1.838l-0.078 0.039 0.8 0.85c0.1 0.1 0.25 0.15 0.4 0.15s0.25 0 0.35-0.15l1.5-1.5c0.25-0.2 0.25-0.5 0-0.75zM23.25 6.25c0.189-0.184 0.448-0.298 0.733-0.298 0.58 0 1.050 0.47 1.050 1.050 0 0.556-0.432 1.011-0.979 1.048l-0.003 0c-0.005 0-0.010 0-0.015 0-0.58 0-1.050-0.47-1.050-1.050 0-0.294 0.121-0.559 0.315-0.75l0-0zM22 9.75l-0.5 2.95-1.25-1.2 1.75-1.75zM21.4 8.85l-1.9 1.9-1.5-1.5 3.4-0.4zM24 28.8c0.9 0 1.6 0.7 1.6 1.6v0.5h-23.5v-0.5c0-0.9 0.75-1.6 1.65-1.6h20.25zM16.5 26.65v1.1h-5.25v-1.1h5.35zM11.2 25.6v-4.050c0-1.3 1.2-2.35 2.65-2.35 1.5 0 2.7 1.050 2.7 2.35v4.050h-5.35zM17.6 23.9v-2.35c0-1.9-1.65-3.4-3.75-3.4-0.015-0-0.033-0-0.050-0-1.338 0-2.514 0.691-3.191 1.736l-0.009 0.015c-2.363-2.48-3.817-5.844-3.817-9.548 0-2.3 0.561-4.47 1.553-6.379l-0.036 0.077 18.6 18.7c-2.85 1.45-6.15 1.85-9.3 1.15zM28.9 23.2l-0.75-0.7-19.55-19.7-0.75-0.8 0.75-0.75 7.95 8 13.1 13.15-0.75 0.75z"></path>
<path fill="#4d5ae5" style="fill: var(--color2, #4d5ae5)" d="M13.9 20.25c-0.884 0-1.6 0.716-1.6 1.6s0.716 1.6 1.6 1.6v0c0.884 0 1.6-0.716 1.6-1.6s-0.716-1.6-1.6-1.6v0zM14.25 22.25c-0.078 0.053-0.175 0.085-0.279 0.085-0.276 0-0.5-0.224-0.5-0.5 0-0.233 0.16-0.429 0.376-0.484l0.003-0.001c0.036-0.009 0.078-0.015 0.121-0.015 0.276 0 0.5 0.224 0.5 0.5 0 0.172-0.087 0.324-0.219 0.414l-0.002 0.001z"></path>
</symbol>
<symbol id="icon-astronaut" viewBox="0 0 32 32">
<path fill="#4d5ae5" style="fill: var(--color2, #4d5ae5)" d="M32 4.5c-0.066-0.205-0.254-0.351-0.477-0.351-0.008 0-0.016 0-0.024 0.001l0.001-0-1.85-0.25-0.85-1.75c-0.2-0.35-0.8-0.35-1 0l-0.8 1.75-1.9 0.25c-0.276 0-0.5 0.224-0.5 0.5 0 0.163 0.078 0.308 0.199 0.399l0.001 0.001 1.4 1.35-0.35 1.9c-0.062 0.083-0.1 0.187-0.1 0.3 0 0.276 0.224 0.5 0.5 0.5 0.163 0 0.308-0.078 0.399-0.199l0.001-0.001 1.7-0.9 1.7 0.9c0.092 0.122 0.237 0.2 0.4 0.2 0.276 0 0.5-0.224 0.5-0.5 0-0.113-0.038-0.217-0.101-0.301l0.001 0.001-0.35-1.9 1.4-1.35c0.15-0.1 0.2-0.35 0.1-0.5zM29.5 5.85c-0.102 0.092-0.167 0.225-0.167 0.373 0 0.045 0.006 0.089 0.017 0.131l-0.001-0.003 0.2 1.1-1-0.5c-0.072-0.042-0.158-0.067-0.25-0.067s-0.178 0.025-0.252 0.068l0.002-0.001-1 0.5 0.2-1.15c0-0.15 0-0.35-0.15-0.45l-0.8-0.8 1.1-0.15c0.15 0 0.3-0.15 0.4-0.3l0.5-1 0.5 1c0.1 0.15 0.25 0.25 0.4 0.3l1.1 0.15-0.8 0.8zM26.15 20.5h-1.15v1.1h1.1v-1.1zM26.15 22.65h-1.15v1.050h1.1v-1zM27.2 21.6h-1.050v1.050h1.050v-1.050z"></path>
<path fill="#4d5ae5" style="fill: var(--color2, #4d5ae5)" d="M25.050 21.6h-1.050v1.050h1.050v-1.050zM22.4 26.4h-1.050v1.050h1.050v-1.050zM22.4 28.5h-1.050v1.1h1.050v-1.1zM23.5 27.5h-1.1v1h1.050v-1zM21.35 27.5h-1.1v1h1.1v-1zM16 24.25h-1.050v1.050h1.050v-1zM16 26.4h-1.050v1.050h1.050v-1.050zM17.050 25.3h-1.050v1.1h1.050v-1.1z"></path>
<path fill="#4d5ae5" style="fill: var(--color2, #4d5ae5)" d="M14.95 25.3h-1.1v1.1h1.15v-1.1zM5.85 6.1h-1.050v1.1h1.050v-1.1zM5.85 8.25h-1.050v1.050h1.050v-1zM6.95 7.2h-1.1v1.050h1.15v-1.050zM4.8 7.2h-1.050v1.050h1.050v-1.050z"></path>
<path fill="#2e2f42" style="fill: var(--color1, #2e2f42)" d="M24.7 14.15c-0.27-0.369-0.675-0.625-1.14-0.699l-0.010-0.001c-0.5-0.050-1 0.050-1.35 0.35l-1.25 1-1.9 1.4-1.35-0.55c2.392-1.133 4.016-3.527 4.016-6.3 0-3.809-3.064-6.902-6.862-6.949l-0.004-0c-3.826 0.052-6.908 3.166-6.908 6.999 0 1.371 0.394 2.65 1.075 3.729l-0.017-0.029h-2.8c-0.023-0.004-0.049-0.006-0.075-0.006s-0.052 0.002-0.078 0.006l0.003-0h-0.050l-3.25 1.6-1.9 0.9-0.050 0.050c-0.409 0.333-0.668 0.836-0.668 1.399 0 0.994 0.806 1.8 1.8 1.8 0.26 0 0.506-0.055 0.729-0.154l-0.011 0.005 1.35-0.7 2.3-1.15h1.35l-5.45 5.35-1.35 1.35c-0.304 0.299-0.492 0.715-0.492 1.175s0.188 0.876 0.491 1.175l0 0c0.299 0.304 0.715 0.492 1.175 0.492s0.876-0.188 1.175-0.491l0-0 1.35-1.3 1.7-1.3 0.9 0.9-3.1 3.1c-0.304 0.299-0.492 0.715-0.492 1.175s0.188 0.876 0.491 1.175l0 0c0.302 0.319 0.728 0.518 1.2 0.518s0.898-0.199 1.199-0.517l0.001-0.001 1.3-1.35 3.15-3.15 5.25-5.65 3.5 0.5c0.009 0.001 0.020 0.001 0.030 0.001 0.080 0 0.156-0.019 0.223-0.052l-0.003 0.001 0.1-0.050 3.2-2.15h0.1l1.2-1.25c0.336-0.327 0.545-0.784 0.545-1.29 0-0.398-0.129-0.767-0.349-1.065l0.003 0.005zM2.15 17.75c-0.2 0.1-0.4 0.15-0.6 0.050-0.294-0.087-0.505-0.355-0.505-0.672 0-0.239 0.12-0.45 0.302-0.576l0.002-0.002 1.3-0.55 0.35 0.9 0.1 0.4-1 0.5zM5.65 15.95l-1.55 0.8-0.3-0.75-0.15-0.5 2-1v1.45zM20.75 9.3c0 0.95-0.25 1.8-0.6 2.6l-4.2-1.9c0-0.6-0.35-1.1-0.8-1.4l1.5-4.85c2.35 0.75 4.1 3 4.1 5.55zM8.95 9.3c0.030-3.236 2.66-5.848 5.9-5.848 0.264 0 0.525 0.017 0.78 0.051l-0.030-0.003-1.5 4.75c-1 0-1.9 0.85-1.9 1.85-0.003 0.036-0.004 0.079-0.004 0.121 0 1.022 0.828 1.85 1.85 1.85 0.72 0 1.343-0.411 1.649-1.011l0.005-0.010 3.85 1.75c-1.089 1.424-2.788 2.334-4.7 2.334-3.235 0-5.862-2.604-5.9-5.83l-0-0.004zM14.9 10.1c0 0.5-0.35 0.8-0.8 0.8-0.5 0-0.8-0.35-0.8-0.8 0-0.4 0.35-0.8 0.8-0.8s0.8 0.4 0.8 0.8zM2.45 25.1c-0.2 0.3-0.6 0.3-0.85 0-0.095-0.106-0.153-0.246-0.153-0.4s0.058-0.294 0.153-0.401l-0 0.001 1-1 0.8 0.9-0.9 0.95zM5.7 28.9c-0.25 0.2-0.65 0.2-0.9 0-0.109-0.109-0.176-0.259-0.176-0.425s0.067-0.316 0.176-0.425l1-1 0.4 0.45 0.45 0.4-1 1zM9.2 25.4l-1.8 1.75-0.4-0.4-0.5-0.45 1.8-1.75 0.1-0.1v-0.050l0.050-0.15v-0.25c-0.025-0.058-0.059-0.108-0.1-0.15l-1.65-1.65h-0.050l-0.1-0.1h-0.5v0.050l-1.85 1.35-0.9-0.9 2.4-2.4 4.35 4.3-0.95 0.9zM16 18.4h-0.050c-0.022-0.003-0.046-0.005-0.072-0.005-0.083 0-0.162 0.020-0.231 0.056l0.003-0.001-0.1 0.1-4.75 5.15-4.3-4.2 2.8-2.8c0.195-0.073 0.331-0.258 0.331-0.475 0-0.28-0.227-0.506-0.506-0.506-0.063 0-0.123 0.011-0.178 0.032l0.004-0.001h-2.25v-1.55h3.15c1.265 1.305 3.034 2.115 4.992 2.115 0.445 0 0.88-0.042 1.301-0.122l-0.043 0.007 0.15 0.050 2.4 1 0.15 0.75 0.2 0.85-3-0.4zM20 18.55l-0.3-1.5 1.5-1.1 0.35 0.5 0.55 0.75-2.1 1.3zM23.75 15.75l-0.75 0.75-1-1.2 0.85-0.65c0.15-0.1 0.35-0.15 0.5-0.15 0.373 0.018 0.668 0.324 0.668 0.699 0 0.223-0.104 0.421-0.266 0.55l-0.001 0.001z"></path>
<path fill="#2e2f42" style="fill: var(--color1, #2e2f42)" d="M13.6 18.5l-2.15-2.1c-0.092-0.104-0.226-0.169-0.375-0.169s-0.283 0.065-0.375 0.169l-0 0.001-2.15 2.15c-0.104 0.092-0.169 0.226-0.169 0.375s0.065 0.283 0.169 0.375l0.001 0 2.15 2.15c0.092 0.104 0.226 0.169 0.375 0.169s0.283-0.065 0.375-0.169l0-0.001 2.15-2.15c0.104-0.092 0.169-0.226 0.169-0.375s-0.065-0.283-0.169-0.375l-0.001-0zM11.1 20.3l-1.4-1.4 1.4-1.35 1.35 1.35-1.35 1.4zM17.15 5.050l-0.25 1.050c0.1 0 1.75 0.5 1.75 2.15h1.050c0-2-1.65-3-2.5-3.2zM19.7 9.3h-1.050v1.1h1.050v-1.1z"></path>
</symbol>
<symbol id="icon-clock" viewBox="0 0 32 32">
<path fill="#2e2f42" style="fill: var(--color1, #2e2f42)" d="M31.3 15.3c0-0.007 0-0.015 0-0.023 0-8.45-6.85-15.3-15.3-15.3s-15.3 6.85-15.3 15.3c0 6.844 4.494 12.638 10.692 14.594l0.108 0.029c0.15 0 0.25 0 0.35-0.1 0.15-0.050 0.25-0.2 0.3-0.35l3.85-12.25c1.049-0.001 1.899-0.851 1.899-1.9s-0.851-1.9-1.9-1.9c-0.309 0-0.601 0.074-0.859 0.205l0.011-0.005-5.1-5.15c-0.1-0.067-0.224-0.106-0.356-0.106-0.359 0-0.65 0.291-0.65 0.65 0 0.133 0.040 0.256 0.108 0.359l-0.002-0.002 5.1 5.15c-0.113 0.236-0.179 0.512-0.179 0.804 0 0.606 0.283 1.145 0.725 1.493l0.004 0.003-3.7 11.65c-5.375-2.037-9.128-7.142-9.128-13.125 0-7.732 6.268-14 14-14s14 6.268 14 14c0 5.657-3.356 10.531-8.185 12.739l-0.087 0.036-0.4-1.85c-0.070-0.29-0.326-0.502-0.633-0.502-0.159 0-0.305 0.057-0.418 0.152l0.001-0.001-3.85 3.4c-0.129 0.119-0.21 0.289-0.21 0.478 0 0.291 0.191 0.538 0.455 0.62l0.005 0.001 4.85 1.6c0.046 0.012 0.099 0.018 0.154 0.018 0.359 0 0.65-0.291 0.65-0.65 0-0.024-0.001-0.048-0.004-0.071l0 0.003-0.4-1.85c5.539-2.368 9.35-7.77 9.35-14.062 0-0.013-0-0.026-0-0.040v0.002zM16 14.65c0.359 0 0.65 0.291 0.65 0.65s-0.291 0.65-0.65 0.65v0c-0.359 0-0.65-0.291-0.65-0.65s0.291-0.65 0.65-0.65v0zM18.1 29.55l2.2-2 0.6 2.85-2.8-0.85z"></path>
<path fill="#4d5ae5" style="fill: var(--color2, #4d5ae5)" d="M15.35 3.2v1.25c0 0.359 0.291 0.65 0.65 0.65s0.65-0.291 0.65-0.65v-1.25c0-0.359-0.291-0.65-0.65-0.65s-0.65 0.291-0.65 0.65v0zM3.9 14.65c-0.359 0-0.65 0.291-0.65 0.65s0.291 0.65 0.65 0.65v0h1.25c0.359 0 0.65-0.291 0.65-0.65s-0.291-0.65-0.65-0.65v0h-1.25zM28.1 15.95c0.359 0 0.65-0.291 0.65-0.65s-0.291-0.65-0.65-0.65v0h-1.25c-0.359 0-0.65 0.291-0.65 0.65s0.291 0.65 0.65 0.65v0h1.25z"></path>
</symbol>
<symbol id="icon-diagram" viewBox="0 0 32 32">
<path fill="#4d5ae5" style="fill: var(--color2, #4d5ae5)" d="M14.95 15h1v4.75h-1v-4.75zM19.2 17.1h1.050v2.65h-1.050v-2.65zM10.65 18.7h1.1v1.050h-1.1v-1.050zM7.5 18.15h1v1.6h-1v-1.6z"></path>
<path fill="#2e2f42" style="fill: var(--color1, #2e2f42)" d="M1.6 28.3h25.6c0.85 0 1.6-0.75 1.6-1.6v-2.2c0-0.85-0.75-1.6-1.6-1.6h-0.5v-13.25l3-2.85c0.202 0.099 0.441 0.158 0.692 0.158 0.884 0 1.6-0.716 1.6-1.6s-0.716-1.6-1.6-1.6c-0.884 0-1.6 0.716-1.6 1.6 0 0.252 0.058 0.49 0.162 0.702l-0.004-0.009-2.3 2.15v-1.25c0-0.85-0.7-1.6-1.6-1.6h-21.3c-0 0-0.001 0-0.001 0-0.884 0-1.6 0.716-1.6 1.6 0 0.018 0 0.035 0.001 0.053l-0-0.003v16h-0.55c-0 0-0 0-0.001 0-0.866 0-1.571 0.688-1.599 1.547l-0 0.003v2.15c0 0.85 0.7 1.6 1.6 1.6zM30.4 4.8c0.304 0 0.55 0.246 0.55 0.55s-0.246 0.55-0.55 0.55v0c-0.29 0-0.525-0.235-0.525-0.525s0.235-0.525 0.525-0.525v0zM3.2 7c0-0.3 0.25-0.5 0.5-0.5h21.35c0.3 0 0.5 0.2 0.5 0.5v2.25l-1 1v-2.15c0-0.3-0.25-0.55-0.55-0.55h-19.2c-0.276 0-0.5 0.224-0.5 0.5v0 13.35c0 0.3 0.2 0.5 0.5 0.5h19.2c0.3 0 0.5-0.2 0.5-0.5v-9.7l1.1-1v12.25h-22.4v-15.95zM8 13.9c-0.004-0-0.008-0-0.012-0-0.884 0-1.6 0.716-1.6 1.6s0.716 1.6 1.6 1.6c0.432 0 0.825-0.172 1.113-0.45l-0 0 1.85 0.95c0.2 0.1 0.5 0 0.65-0.15l3.9-4.45 3.85 2.9c0.2 0.2 0.5 0.15 0.7 0l3.35-3.2v8.15h-18.050v-12.35h18.1v2.7l-3.75 3.55-3.9-2.95c-0.088-0.078-0.204-0.126-0.332-0.126-0.174 0-0.328 0.089-0.417 0.224l-0.001 0.002-4 4.5-1.5-0.75v-0.15c0-0.9-0.65-1.6-1.55-1.6zM8.5 15.5c0 0.276-0.224 0.5-0.5 0.5s-0.5-0.224-0.5-0.5v0c0-0.276 0.224-0.5 0.5-0.5s0.5 0.224 0.5 0.5v0zM11.75 24h5.25v0.55c0 0.3-0.25 0.5-0.5 0.5h-4.3c-0.276 0-0.5-0.224-0.5-0.5v0-0.5zM1 24.6c0-0.3 0.25-0.5 0.55-0.5h9.050v0.5c0 0.9 0.75 1.6 1.6 1.6h4.3c0.9 0 1.6-0.7 1.6-1.6v-0.5h9.1c0.3 0 0.5 0.2 0.5 0.5v2.15c0 0.3-0.2 0.5-0.5 0.5h-25.6c-0.276 0-0.5-0.224-0.5-0.5v0-2.25z"></path>
</symbol>
<symbol id="icon-email" viewBox="0 0 32 32">
<path d="M24 8h-16c-1.1 0-1.99 0.9-1.99 2l-0.010 12c0 1.1 0.9 2 2 2h16c1.1 0 2-0.9 2-2v-12c0-1.1-0.9-2-2-2zM23.6 12.25l-7.070 4.42c-0.32 0.2-0.74 0.2-1.060 0l-7.070-4.42c-0.25-0.16-0.4-0.43-0.4-0.72 0-0.67 0.73-1.070 1.3-0.72l6.7 4.19 6.7-4.19c0.57-0.35 1.3 0.050 1.3 0.72 0 0.29-0.15 0.56-0.4 0.72z"></path>
</symbol>
<symbol id="icon-facebook" viewBox="0 0 32 32">
<path d="M21.329 5.313h2.921v-5.088c-0.504-0.069-2.237-0.225-4.256-0.225-4.212 0-7.097 2.649-7.097 7.519v4.481h-4.648v5.688h4.648v14.312h5.699v-14.311h4.46l0.708-5.688h-5.169v-3.919c0.001-1.644 0.444-2.769 2.735-2.769z"></path>
</symbol>
<symbol id="icon-instagram" viewBox="0 0 32 32">
<path d="M31.969 9.408c-0.075-1.7-0.35-2.869-0.744-3.882-0.406-1.075-1.031-2.038-1.85-2.838-0.8-0.813-1.769-1.444-2.832-1.844-1.019-0.394-2.182-0.669-3.882-0.744-1.713-0.081-2.257-0.1-6.601-0.1s-4.888 0.019-6.595 0.094c-1.7 0.075-2.869 0.35-3.882 0.744-1.075 0.406-2.038 1.031-2.838 1.85-0.813 0.8-1.444 1.769-1.844 2.832-0.394 1.019-0.669 2.182-0.744 3.882-0.081 1.713-0.1 2.257-0.1 6.601s0.019 4.888 0.094 6.595c0.075 1.7 0.35 2.869 0.744 3.882 0.406 1.075 1.038 2.038 1.85 2.838 0.8 0.813 1.769 1.444 2.832 1.844 1.019 0.394 2.182 0.669 3.882 0.744 1.706 0.075 2.25 0.094 6.595 0.094s4.888-0.018 6.595-0.094c1.7-0.075 2.869-0.35 3.882-0.744 2.151-0.831 3.851-2.532 4.682-4.682 0.394-1.019 0.669-2.182 0.744-3.882 0.075-1.707 0.094-2.251 0.094-6.595s-0.006-4.888-0.081-6.595zM29.087 22.473c-0.069 1.563-0.331 2.407-0.55 2.969-0.538 1.394-1.644 2.501-3.038 3.038-0.563 0.219-1.413 0.481-2.969 0.55-1.688 0.075-2.194 0.094-6.464 0.094s-4.782-0.018-6.464-0.094c-1.563-0.069-2.407-0.331-2.969-0.55-0.694-0.256-1.325-0.663-1.838-1.194-0.531-0.519-0.938-1.144-1.194-1.838-0.219-0.563-0.481-1.413-0.55-2.969-0.075-1.688-0.094-2.194-0.094-6.464s0.019-4.782 0.094-6.464c0.069-1.563 0.331-2.407 0.55-2.969 0.256-0.694 0.663-1.325 1.2-1.838 0.519-0.531 1.144-0.938 1.838-1.194 0.563-0.219 1.413-0.481 2.969-0.55 1.688-0.075 2.194-0.094 6.464-0.094 4.276 0 4.782 0.019 6.464 0.094 1.563 0.069 2.407 0.331 2.969 0.55 0.694 0.256 1.325 0.662 1.838 1.194 0.531 0.519 0.938 1.144 1.194 1.838 0.219 0.563 0.481 1.413 0.55 2.969 0.075 1.688 0.094 2.194 0.094 6.464s-0.019 4.77-0.094 6.457z"></path>
<path d="M16.059 7.782c-4.538 0-8.22 3.682-8.22 8.22s3.682 8.22 8.22 8.22c4.538 0 8.22-3.682 8.22-8.22s-3.682-8.22-8.22-8.22zM16.059 21.335c-2.944 0-5.332-2.388-5.332-5.332s2.388-5.332 5.332-5.332c2.944 0 5.332 2.388 5.332 5.332s-2.388 5.332-5.332 5.332z"></path>
<path d="M26.524 7.457c0 1.060-0.859 1.919-1.919 1.919s-1.919-0.859-1.919-1.919c0-1.060 0.859-1.919 1.919-1.919s1.919 0.859 1.919 1.919z"></path>
</symbol>
<symbol id="icon-linkedin" viewBox="0 0 32 32">
<path d="M31.992 32v-0.001h0.008v-11.736c0-5.741-1.236-10.164-7.948-10.164-3.227 0-5.392 1.771-6.276 3.449h-0.093v-2.913h-6.364v21.364h6.627v-10.579c0-2.785 0.528-5.479 3.977-5.479 3.399 0 3.449 3.179 3.449 5.657v10.401h6.62z"></path>
<path d="M0.528 10.636h6.635v21.364h-6.635v-21.364z"></path>
<path d="M3.843-0c-2.121 0-3.843 1.721-3.843 3.843s1.721 3.879 3.843 3.879c2.121 0 3.843-1.757 3.843-3.879-0.001-2.121-1.723-3.843-3.843-3.843v0z"></path>
</symbol>
<symbol id="icon-person" viewBox="0 0 32 32">
<path d="M16 16c2.947 0 5.333-2.387 5.333-5.333s-2.387-5.333-5.333-5.333c-2.947 0-5.333 2.387-5.333 5.333s2.387 5.333 5.333 5.333zM16 18.667c-3.56 0-10.667 1.787-10.667 5.333v1.333c0 0.733 0.6 1.333 1.333 1.333h18.667c0.733 0 1.333-0.6 1.333-1.333v-1.333c0-3.547-7.107-5.333-10.667-5.333z"></path>
</symbol>
<symbol id="icon-phone" viewBox="0 0 32 32">
<path d="M23.635 18.487l-2.451-0.28c-0.589-0.067-1.167 0.135-1.582 0.55l-1.775 1.775c-2.731-1.389-4.969-3.618-6.359-6.359l1.785-1.785c0.415-0.415 0.618-0.994 0.55-1.582l-0.28-2.432c-0.116-0.975-0.936-1.708-1.92-1.708h-1.669c-1.090 0-1.997 0.907-1.93 1.997 0.511 8.24 7.102 14.821 15.332 15.332 1.090 0.068 1.997-0.839 1.997-1.93v-1.669c0.010-0.975-0.724-1.795-1.698-1.911z"></path>
</symbol>
<symbol id="icon-send" viewBox="0 0 32 32">
<path d="M32 2.667l-32 15 10.227 3.156 15.773-12.323-11.998 13.488 0.010 0.003-0.012-0.003v7.345l5.735-5.576 7.265 2.242 5-23.333z"></path>
</symbol>
<symbol id="icon-twitter" viewBox="0 0 32 32">
<path d="M32 6.078c-1.19 0.522-2.458 0.868-3.78 1.036 1.36-0.812 2.398-2.088 2.886-3.626-1.268 0.756-2.668 1.29-4.16 1.588-1.204-1.282-2.92-2.076-4.792-2.076-3.632 0-6.556 2.948-6.556 6.562 0 0.52 0.044 1.020 0.152 1.496-5.454-0.266-10.28-2.88-13.522-6.862-0.566 0.982-0.898 2.106-0.898 3.316 0 2.272 1.17 4.286 2.914 5.452-1.054-0.020-2.088-0.326-2.964-0.808 0 0.020 0 0.046 0 0.072 0 3.188 2.274 5.836 5.256 6.446-0.534 0.146-1.116 0.216-1.72 0.216-0.42 0-0.844-0.024-1.242-0.112 0.85 2.598 3.262 4.508 6.13 4.57-2.232 1.746-5.066 2.798-8.134 2.798-0.538 0-1.054-0.024-1.57-0.090 2.906 1.874 6.35 2.944 10.064 2.944 12.072 0 18.672-10 18.672-18.668 0-0.29-0.010-0.57-0.024-0.848 1.302-0.924 2.396-2.078 3.288-3.406z"></path>
</symbol>
<symbol id="icon-close" viewBox="0 0 32 32">
<path d="M32 3.2l-3.2-3.2-12.8 12.8-12.8-12.8-3.2 3.2 12.8 12.8-12.8 12.8 3.2 3.2 12.8-12.8 12.8 12.8 3.2-3.2-12.8-12.8 12.8-12.8z"></path>
<symbol id="icon-full-check" viewBox="0 0 32 32">
<path d="M22.891 8.51c0.346-0.331 0.805-0.514 1.283-0.51s0.934 0.193 1.275 0.53c0.341 0.336 0.538 0.792 0.551 1.272s-0.161 0.945-0.483 1.299l-9.789 12.309c-0.168 0.182-0.371 0.328-0.597 0.43s-0.47 0.156-0.717 0.161c-0.247 0.005-0.493-0.041-0.723-0.134s-0.438-0.232-0.613-0.408l-6.492-6.527c-0.181-0.169-0.326-0.374-0.426-0.601s-0.155-0.472-0.159-0.72c-0.004-0.248 0.041-0.495 0.134-0.725s0.23-0.44 0.405-0.615c0.175-0.176 0.383-0.314 0.612-0.407s0.475-0.139 0.722-0.134c0.247 0.004 0.491 0.059 0.716 0.16s0.429 0.247 0.597 0.429l5.137 5.163 8.521-10.915c0.015-0.019 0.032-0.037 0.049-0.054h-0.002z"></path>
</symbol>
</defs>
</svg>
